PathFileType	4	(X/Y/Z)	Run_500 02
DataRate	CameraRate	NumFrames	NumMarkers	Units	OrigDataRate	OrigDataStartFrame	OrigNumFrames
100	100	6	42	mm	100	93	128
Frame#	Time	LASI			RASI			LPSI			RPSI			RTH1			RTH2			RTH3			LTH1			LTH2			LTH3			RTB1			RTB2			RTB3			LTB1			LTB2			LTB3			RCAL			RTOE			RMT5			LCAL			LTOE			LMT5			LACR			RACR			CLAV			C7			RUA1			RUA2			RUA3			RLEL			RMEL			LUA1			LUA2			LUA3			LLEL			LMEL			RFAsuperior			RFAradius			RFAulna			LFAsuperior			LFAradius			LFAulna			
		X1	Y1	Z1	X2	Y2	Z2	X3	Y3	Z3	X4	Y4	Z4	X5	Y5	Z5	X6	Y6	Z6	X7	Y7	Z7	X8	Y8	Z8	X9	Y9	Z9	X10	Y10	Z10	X11	Y11	Z11	X12	Y12	Z12	X13	Y13	Z13	X14	Y14	Z14	X15	Y15	Z15	X16	Y16	Z16	X17	Y17	Z17	X18	Y18	Z18	X19	Y19	Z19	X20	Y20	Z20	X21	Y21	Z21	X22	Y22	Z22	X23	Y23	Z23	X24	Y24	Z24	X25	Y25	Z25	X26	Y26	Z26	X27	Y27	Z27	X28	Y28	Z28	X29	Y29	Z29	X30	Y30	Z30	X31	Y31	Z31	X32	Y32	Z32	X33	Y33	Z33	X34	Y34	Z34	X35	Y35	Z35	X36	Y36	Z36	X37	Y37	Z37	X38	Y38	Z38	X39	Y39	Z39	X40	Y40	Z40	X41	Y41	Z41	X42	Y42	Z42	

91	2.95	795.882996	962.022246	-425.029066	794.266306	960.697326	-185.497775	633.938937	1016.327622	-357.968151	636.992494	1021.997085	-261.474482	655.3457110000001	733.987024	-135.423857	679.209661	632.839641	-147.958878	584.436606	573.78865	-162.978506	813.879942	790.2788839999999	-485.179825	913.59455	724.461401	-469.435882	922.1409630000001	609.53097	-439.010987	430.545003	440.063219	-230.825029	347.952298	469.258033	-185.392491	240.155762	437.489865	-248.68651	1041.028224	455.164894	-370.938809	1005.563798	360.334655	-423.246549	1065.951117	268.035696	-349.197443	168.705518	529.912295	-253.88082	65.818433	348.567646	-328.784787	26.434237	384.606281	-233.605882	1004.80084	114.308092	-324.839989	1214.885513	184.215643	-321.589804	1190.251991	120.004923	-409.189656	793.926138	1440.863986	-474.041261	851.282832	1437.067788	-198.052479	895.89727	1358.797653	-335.792509	776.055355	1475.852589	-318.760246	842.769885	1363.657123	-73.135685	779.243769	1303.044852	-47.551349	842.090207	1272.587777	11.543504	841.70874	1209.800642	60.034175	796.279541	1161.433095	17.380901	673.394276	1403.756607	-536.946088	627.90001	1369.344962	-467.735359	597.224166	1343.545791	-544.762461	519.233931	1293.37284	-555.597249	518.1825710000001	1268.773937	-486.582709	940.200815	1216.102199	-6.599631	992.919999	1215.202657	-131.469917	1015.82022	1157.520218	-100.633954	610.564739	1227.206379	-581.569407	705.205554	1119.205765	-547.030248	651.844391	1096.301063	-589.113446	
92	2.96	794.45064	960.72081	-427.362918	796.5138040000001	959.044651	-186.189992	633.621052	1010.709645	-357.014764	637.501933	1016.266563	-259.769795	665.252955	728.2542089999999	-134.438315	692.899244	627.857117	-145.939802	600.875887	565.109431	-160.904725	810.616643	784.195557	-483.963565	909.601	716.241372	-469.648714	914.602099	601.08705	-437.442632	447.188091	443.759064	-229.416806	367.941427	482.079663	-184.076629	257.815855	462.675891	-247.355783	1026.93038	442.355087	-369.816635	987.6980600000001	347.013252	-422.120181	1045.406613	252.241511	-348.264333	198.477873	561.845156	-256.126114	72.465518	391.316928	-320.340107	39.523246	436.485636	-226.215102	979.223762	104.055467	-322.311364	1192.010226	161.102277	-322.489884	1161.871904	98.411439	-410.569859	794.650864	1437.038113	-475.503984	848.060154	1433.802252	-198.027249	894.819498	1355.172266	-335.149445	775.269557	1474.130204	-320.372414	836.062548	1359.979064	-73.375615	769.918905	1302.011061	-49.133171	830.663099	1266.997979	10.02591	825.682006	1205.943846	59.634001	778.990866	1159.587161	16.117893	674.7895	1397.009607	-541.004082	627.931463	1362.305409	-472.534577	600.126654	1334.60951	-550.388313	523.749895	1282.369032	-562.412334	521.715565	1258.295226	-493.140422	926.265477	1205.453562	-3.991273	983.545649	1198.690525	-126.965464	1002.336333	1140.436425	-93.306421	617.779601	1218.532909	-586.112646	714.534343	1114.229564	-547.984559	663.919687	1088.933323	-590.476806	
93	2.97	793.425629	958.1468139999999	-429.80197	798.806666	955.798786	-187.222225	633.740739	1004.788021	-356.034261	638.117166	1009.132356	-257.436337	674.765307	721.342416	-133.428503	706.6248440000001	622.90583	-143.380754	618.502394	555.765439	-158.127629	808.640729	778.819138	-483.048409	906.016744	709.559645	-468.033607	905.620044	591.692483	-436.472912	466.918174	446.105033	-226.674314	391.754963	493.406812	-182.290527	280.799596	485.063175	-245.975713	1010.189476	426.470741	-367.891295	967.364924	332.571083	-420.730072	1021.295132	234.9488	-346.094391	232.276239	589.2494390000001	-260.027249	86.702023	429.647905	-309.583135	62.280463	483.689615	-216.95811	948.216956	98.061076	-318.316263	1163.128291	132.085651	-321.02002	1126.435563	75.997259	-411.150867	794.8402610000001	1432.248193	-476.730241	845.439384	1429.371908	-197.40936	893.802605	1350.776557	-334.006041	773.654738	1470.723602	-322.015056	828.726296	1355.373171	-73.465029	760.244746	1300.468662	-50.429109	818.458482	1260.649834	7.975065	808.193907	1201.730878	58.964294	760.447621	1157.509155	14.307088	676.391365	1388.568163	-545.066445	627.091722	1352.947517	-478.771316	603.708467	1323.09627	-557.937821	529.851867	1268.872325	-571.719519	525.625027	1245.60504	-502.099917	910.652045	1193.52874	-0.799026	972.299205	1180.25876	-121.50905	986.5684220000001	1121.704426	-84.818944	626.626413	1207.648859	-592.155155	725.136839	1107.445057	-549.162568	678.1581	1079.644565	-592.381484	
94	2.98	792.250252	954.461173	-431.514183	800.949056	951.046683	-188.741721	633.300779	998.971379	-355.043708	638.347007	1000.938043	-254.978669	684.333788	713.8624160000001	-132.562625	720.222452	618.1315959999999	-140.439549	637.192036	546.22491	-155.115633	806.432129	773.104166	-483.186883	901.416703	701.8410260000001	-466.221455	895.272487	581.799997	-436.673765	489.695984	447.121434	-223.21255	418.844873	502.385671	-180.329286	308.168863	503.829349	-244.667051	993.552984	410.575118	-366.206541	947.333872	319.638081	-418.070341	995.7845610000001	220.193839	-341.422662	268.596424	611.513721	-264.135783	107.746961	463.041838	-298.23043	93.528694	523.376308	-207.168544	913.564768	97.23170500000001	-311.67252	1129.579383	103.036594	-317.481248	1086.187623	58.589005	-410.372229	794.898297	1426.858898	-477.783807	843.01394	1424.400152	-196.111317	893.048854	1345.887142	-332.440702	771.325367	1465.377504	-323.576943	820.658634	1349.730884	-73.155777	750.300267	1298.206039	-51.560155	805.41658	1253.96774	6.131281	789.572986	1197.281454	57.968867	740.981542	1155.489331	11.793143	678.4577839999999	1378.542594	-549.151045	626.236281	1341.540201	-486.281146	608.490547	1309.347577	-566.6271840000001	537.8073879999999	1253.50742	-582.639213	530.5044360000001	1230.919151	-512.839022	893.412752	1180.626747	2.830156	959.037763	1160.354435	-115.167597	968.316641	1102.124235	-75.585014	637.19512	1195.148791	-599.076054	737.0628	1099.106508	-550.626165	693.931563	1068.864203	-594.9160869999999	
95	2.99	789.946763	950.236044	-432.254674	802.438336	945.112509	-191.0341	631.055918	993.862763	-353.934131	637.305042	992.4568829999999	-252.835825	694.615841	706.648447	-131.935493	734.258928	613.34513	-137.621926	657.297462	537.037899	-152.223704	802.215084	767.148589	-484.578204	895.56471	693.699458	-466.253005	885.616855	574.191158	-438.261095	515.717304	447.076936	-220.090639	448.634873	508.237852	-178.3975	338.994873	518.320985	-243.26226	979.2610519999999	399.855038	-365.012136	929.441901	311.661367	-414.382926	969.1188	211.704553	-334.578328	306.824048	628.430718	-267.399819	134.699256	490.736477	-287.700538	130.965383	553.978223	-197.77854	875.33071	99.95568	-303.517534	1091.531788	81.511	-312.935044	1042.743288	50.017213	-408.137057	795.087498	1421.447619	-478.766659	839.755181	1419.890074	-194.22056	892.651254	1340.95422	-330.565531	768.559437	1458.707572	-324.833732	811.898985	1343.292885	-72.298306	739.98769	1295.226862	-52.661701	791.381842	1247.445375	5.031525	770.071324	1192.852439	56.617184	720.693397	1153.923533	8.724299999999999	681.270252	1367.045174	-553.515542	626.230635	1328.400181	-494.996187	615.151259	1293.770721	-576.075771	547.842656	1236.844576	-594.442278	537.080106	1214.476825	-524.806722	874.55511	1167.362412	6.67099	943.833836	1139.825549	-108.112573	947.604074	1082.596815	-66.03774300000001	649.708545	1181.436139	-606.374605	750.094474	1089.467799	-552.37923	710.735054	1056.972354	-598.232707	
96	3	785.889079	946.467949	-432.727257	802.639829	938.642636	-194.291233	626.6827960000001	990.048411	-352.532377	634.479335	984.901596	-251.258073	706.073889	700.267646	-131.606432	750.07139	608.699176	-135.778324	680.002682	528.878855	-149.485496	795.347972	762.28806	-486.562349	888.756015	688.649131	-468.527902	878.357626	571.064468	-440.909939	545.335011	446.410835	-218.254211	480.852735	510.779412	-176.557288	372.646138	528.320735	-241.524924	966.419842	396.441461	-363.181438	912.204172	309.859305	-411.355888	939.923375	209.633397	-328.145012	346.40102	640.362565	-269.175387	166.733906	511.534997	-278.793778	172.000305	574.947648	-189.21209	833.094061	103.614111	-296.83496	1049.059163	71.017758	-308.983183	997.0376240000001	49.027184	-405.374159	795.272817	1416.640458	-479.697157	835.123901	1416.513485	-191.831771	892.46523	1336.524605	-328.38413	766.091508	1452.305182	-325.641506	802.624247	1336.74848	-70.93871300000001	728.966126	1291.835279	-54.054427	776.149634	1241.619622	4.583432	749.7751029999999	1188.965591	54.808627	699.731062	1153.260739	5.223653	685.177724	1354.46955	-558.3994269999999	627.808314	1314.027292	-504.841499	624.249036	1277.14133	-585.99628	560.263177	1219.448941	-606.591645	546.111625	1196.712888	-537.626536	854.077028	1154.771325	10.420241	926.83077	1119.939819	-100.603667	924.5857099999999	1064.12358	-56.646185	664.572568	1166.970054	-613.436382	764.1446999999999	1078.930864	-554.341694	728.530353	1044.383908	-602.357023	
